<?xml version="1.0" encoding="UTF-8" standalone="no"?>
<svg
   xmlns:dc="http://purl.org/dc/elements/1.1/"
   xmlns:cc="http://creativecommons.org/ns#"
   xmlns:rdf="http://www.w3.org/1999/02/22-rdf-syntax-ns#"
   xmlns:svg="http://www.w3.org/2000/svg"
   xmlns="http://www.w3.org/2000/svg"
   xmlns:sodipodi="http://sodipodi.sourceforge.net/DTD/sodipodi-0.dtd"
   xmlns:inkscape="http://www.inkscape.org/namespaces/inkscape"
   width="1440"
   height="900"
   version="1.1"
   id="svg298"
   sodipodi:docname="green.svg"
   inkscape:version="0.92.1 r15371">
  <metadata
     id="metadata304">
    <rdf:RDF>
      <cc:Work
         rdf:about="">
        <dc:format>image/svg+xml</dc:format>
        <dc:type
           rdf:resource="http://purl.org/dc/dcmitype/StillImage" />
      </cc:Work>
    </rdf:RDF>
  </metadata>
  <defs
     id="defs302" />
  <sodipodi:namedview
     pagecolor="#ffffff"
     bordercolor="#666666"
     borderopacity="1"
     objecttolerance="10"
     gridtolerance="10"
     guidetolerance="10"
     inkscape:pageopacity="0"
     inkscape:pageshadow="2"
     inkscape:window-width="750"
     inkscape:window-height="480"
     id="namedview300"
     showgrid="false"
     inkscape:zoom="0.26222222"
     inkscape:cx="788.02402"
     inkscape:cy="-160.16949"
     inkscape:window-x="549"
     inkscape:window-y="147"
     inkscape:window-maximized="0"
     inkscape:current-layer="layer1" />
  <path
     d="M842,560L789,665L1006,816Z"
     fill="#369851"
     stroke="#369851"
     stroke-width="1.51"
     id="path2" />
  <path
     d="M789,665L898,824L1006,816Z"
     fill="#288b4b"
     stroke="#288b4b"
     stroke-width="1.51"
     id="path4" />
  <path
     d="M1006,816L1146,759L842,560Z"
     fill="#268847"
     stroke="#268847"
     stroke-width="1.51"
     id="path6" />
  <path
     d="M898,824L1105,1013L1006,816Z"
     fill="#196e3c"
     stroke="#196e3c"
     stroke-width="1.51"
     id="path8" />
  <path
     d="M789,665L774,874L898,824Z"
     fill="#348f4f"
     stroke="#348f4f"
     stroke-width="1.51"
     id="path10" />
  <path
     d="M1006,816L1105,1013L1146,759Z"
     fill="#126938"
     stroke="#126938"
     stroke-width="1.51"
     id="path12" />
  <path
     d="M774,874L1105,1013L898,824Z"
     fill="#1f7340"
     stroke="#1f7340"
     stroke-width="1.51"
     id="path14" />
  <path
     d="M842,560L525,438L789,665Z"
     fill="#60b96c"
     stroke="#60b96c"
     stroke-width="1.51"
     id="path16" />
  <path
     d="M789,665L452,644L774,874Z"
     fill="#53a15d"
     stroke="#53a15d"
     stroke-width="1.51"
     id="path18" />
  <path
     d="M899,245L761,337L842,560Z"
     fill="#79c576"
     stroke="#79c576"
     stroke-width="1.51"
     id="path20" />
  <path
     d="M1174,200L899,245L842,560Z"
     fill="#75bc6f"
     stroke="#75bc6f"
     stroke-width="1.51"
     id="path22" />
  <path
     d="M761,337L525,438L842,560Z"
     fill="#7bc77a"
     stroke="#7bc77a"
     stroke-width="1.51"
     id="path24" />
  <path
     d="M712,141L525,438L761,337Z"
     fill="#a1d889"
     stroke="#a1d889"
     stroke-width="1.51"
     id="path26" />
  <path
     d="M1146,759L1328,374L842,560Z"
     fill="#30954f"
     stroke="#30954f"
     stroke-width="1.51"
     id="path28" />
  <path
     d="M1418,519L1328,374L1146,759Z"
     fill="#298749"
     stroke="#298749"
     stroke-width="1.51"
     id="path30" />
  <path
     d="M525,438L452,644L789,665Z"
     fill="#71bd70"
     stroke="#71bd70"
     stroke-width="1.51"
     id="path32" />
  <path
     d="M1482,693L1418,519L1146,759Z"
     fill="#166f3b"
     stroke="#166f3b"
     stroke-width="1.51"
     id="path34" />
  <path
     d="M1105,1013L1394,926L1146,759Z"
     fill="#045a31"
     stroke="#045a31"
     stroke-width="1.51"
     id="path36" />
  <path
     d="M774,874L1054,1178L1105,1013Z"
     fill="#1b6e3d"
     stroke="#1b6e3d"
     stroke-width="1.51"
     id="path38" />
  <path
     d="M677,1237L1054,1178L774,874Z"
     fill="#2d7b47"
     stroke="#2d7b47"
     stroke-width="1.51"
     id="path40" />
  <path
     d="M1156,1161L1394,926L1105,1013Z"
     fill="#045931"
     stroke="#045931"
     stroke-width="1.51"
     id="path42" />
  <path
     d="M1054,1178L1156,1161L1105,1013Z"
     fill="#0f6235"
     stroke="#0f6235"
     stroke-width="1.51"
     id="path44" />
  <path
     d="M1328,374L1174,200L842,560Z"
     fill="#60a963"
     stroke="#60a963"
     stroke-width="1.51"
     id="path46" />
  <path
     d="M1394,926L1482,693L1146,759Z"
     fill="#005f34"
     stroke="#005f34"
     stroke-width="1.51"
     id="path48" />
  <path
     d="M452,644L510,1038L774,874Z"
     fill="#57945a"
     stroke="#57945a"
     stroke-width="1.51"
     id="path50" />
  <path
     d="M1064,52L712,141L899,245Z"
     fill="#9ed287"
     stroke="#9ed287"
     stroke-width="1.51"
     id="path52" />
  <path
     d="M899,245L712,141L761,337Z"
     fill="#9dd487"
     stroke="#9dd487"
     stroke-width="1.51"
     id="path54" />
  <path
     d="M510,1038L677,1237L774,874Z"
     fill="#498753"
     stroke="#498753"
     stroke-width="1.51"
     id="path56" />
  <path
     d="M1174,200L1064,52L899,245Z"
     fill="#8ec07a"
     stroke="#8ec07a"
     stroke-width="1.51"
     id="path58" />
  <path
     d="M1272,-31L1064,52L1174,200Z"
     fill="#8eb87f"
     stroke="#8eb87f"
     stroke-width="1.51"
     id="path60" />
  <path
     d="M1482,693L1601,344L1418,519Z"
     fill="#2e7b47"
     stroke="#2e7b47"
     stroke-width="1.51"
     id="path62" />
  <path
     d="M1601,344L1349,121L1328,374Z"
     fill="#66945f"
     stroke="#66945f"
     stroke-width="1.51"
     id="path64" />
  <path
     d="M1394,926L1587,775L1482,693Z"
     fill="#00552f"
     stroke="#00552f"
     stroke-width="1.51"
     id="path66" />
  <path
     d="M1469,1111L1587,775L1394,926Z"
     fill="#004529"
     stroke="#004529"
     stroke-width="1.51"
     id="path68" />
  <path
     d="M452,644L251,720L510,1038Z"
     fill="#71a667"
     stroke="#71a667"
     stroke-width="1.51"
     id="path70" />
  <path
     d="M525,438L308,464L452,644Z"
     fill="#93d082"
     stroke="#93d082"
     stroke-width="1.51"
     id="path72" />
  <path
     d="M368,220L308,464L525,438Z"
     fill="#b6e192"
     stroke="#b6e192"
     stroke-width="1.51"
     id="path74" />
  <path
     d="M1156,1161L1469,1111L1394,926Z"
     fill="#004e2d"
     stroke="#004e2d"
     stroke-width="1.51"
     id="path76" />
  <path
     d="M1581,1199L1469,1111L1398,1391Z"
     fill="#004529"
     stroke="#004529"
     stroke-width="1.51"
     id="path78" />
  <path
     d="M1328,374L1349,121L1174,200Z"
     fill="#75a769"
     stroke="#75a769"
     stroke-width="1.51"
     id="path80" />
  <path
     d="M1363,73L1349,121L1601,344Z"
     fill="#759967"
     stroke="#759967"
     stroke-width="1.51"
     id="path82" />
  <path
     d="M308,464L251,720L452,644Z"
     fill="#8ec67b"
     stroke="#8ec67b"
     stroke-width="1.51"
     id="path84" />
  <path
     d="M510,1038L442,1161L677,1237Z"
     fill="#598d59"
     stroke="#598d59"
     stroke-width="1.51"
     id="path86" />
  <path
     d="M189,1043L442,1161L510,1038Z"
     fill="#6d9662"
     stroke="#6d9662"
     stroke-width="1.51"
     id="path88" />
  <path
     d="M434,-29L368,220L712,141Z"
     fill="#d7efa6"
     stroke="#d7efa6"
     stroke-width="1.51"
     id="path90" />
  <path
     d="M712,141L368,220L525,438Z"
     fill="#bce495"
     stroke="#bce495"
     stroke-width="1.51"
     id="path92" />
  <path
     d="M1349,121L1272,-31L1174,200Z"
     fill="#87b078"
     stroke="#87b078"
     stroke-width="1.51"
     id="path94" />
  <path
     d="M1601,344L1328,374L1418,519Z"
     fill="#488652"
     stroke="#488652"
     stroke-width="1.51"
     id="path96" />
  <path
     d="M1587,775L1601,344L1482,693Z"
     fill="#1c6f3e"
     stroke="#1c6f3e"
     stroke-width="1.51"
     id="path98" />
  <path
     d="M1064,52L710,-35L712,141Z"
     fill="#adda9b"
     stroke="#adda9b"
     stroke-width="1.51"
     id="path100" />
  <path
     d="M1149,-199L710,-35L1064,52Z"
     fill="#9fcd99"
     stroke="#9fcd99"
     stroke-width="1.51"
     id="path102" />
  <path
     d="M359,1411L836,1422L677,1237Z"
     fill="#4e8854"
     stroke="#4e8854"
     stroke-width="1.51"
     id="path104" />
  <path
     d="M677,1237L836,1422L1054,1178Z"
     fill="#2a7946"
     stroke="#2a7946"
     stroke-width="1.51"
     id="path106" />
  <path
     d="M1054,1178L972,1458L1156,1161Z"
     fill="#136637"
     stroke="#136637"
     stroke-width="1.51"
     id="path108" />
  <path
     d="M368,220L316,221L308,464Z"
     fill="#cdeb9e"
     stroke="#cdeb9e"
     stroke-width="1.51"
     id="path110" />
  <path
     d="M-20,544L3,794L251,720Z"
     fill="#93bf87"
     stroke="#93bf87"
     stroke-width="1.51"
     id="path112" />
  <path
     d="M434,-29L316,221L368,220Z"
     fill="#e3f4ab"
     stroke="#e3f4ab"
     stroke-width="1.51"
     id="path114" />
  <path
     d="M1363,73L1272,-31L1349,121Z"
     fill="#85a97d"
     stroke="#85a97d"
     stroke-width="1.51"
     id="path116" />
  <path
     d="M1149,-199L1272,-31L1563,-373Z"
     fill="#87aa86"
     stroke="#87aa86"
     stroke-width="1.51"
     id="path118" />
  <path
     d="M836,1422L972,1458L1054,1178Z"
     fill="#1d703e"
     stroke="#1d703e"
     stroke-width="1.51"
     id="path120" />
  <path
     d="M1469,1111L1581,1199L1587,775Z"
     fill="#004529"
     stroke="#004529"
     stroke-width="1.51"
     id="path122" />
  <path
     d="M1587,775L1953,635L1601,344Z"
     fill="#1e7240"
     stroke="#1e7240"
     stroke-width="1.51"
     id="path124" />
  <path
     d="M1398,1391L1469,1111L1156,1161Z"
     fill="#004e2d"
     stroke="#004e2d"
     stroke-width="1.51"
     id="path126" />
  <path
     d="M251,720L189,1043L510,1038Z"
     fill="#739865"
     stroke="#739865"
     stroke-width="1.51"
     id="path128" />
  <path
     d="M442,1161L359,1411L677,1237Z"
     fill="#60905b"
     stroke="#60905b"
     stroke-width="1.51"
     id="path130" />
  <path
     d="M3,794L189,1043L251,720Z"
     fill="#82a574"
     stroke="#82a574"
     stroke-width="1.51"
     id="path132" />
  <path
     d="M1302,1516L1398,1391L1156,1161Z"
     fill="#00542f"
     stroke="#00542f"
     stroke-width="1.51"
     id="path134" />
  <path
     d="M710,-35L434,-29L712,141Z"
     fill="#cae9af"
     stroke="#cae9af"
     stroke-width="1.51"
     id="path136" />
  <path
     d="M1581,1199L1808,820L1587,775Z"
     fill="#004529"
     stroke="#004529"
     stroke-width="1.51"
     id="path138" />
  <path
     d="M1272,-31L1149,-199L1064,52Z"
     fill="#91ba8e"
     stroke="#91ba8e"
     stroke-width="1.51"
     id="path140" />
  <path
     d="M710,-35L628,-202L434,-29Z"
     fill="#cfebb6"
     stroke="#cfebb6"
     stroke-width="1.51"
     id="path142" />
  <path
     d="M1563,-373L1272,-31L1363,73Z"
     fill="#83a383"
     stroke="#83a383"
     stroke-width="1.51"
     id="path144" />
  <path
     d="M972,1458L1302,1516L1156,1161Z"
     fill="#0c5f34"
     stroke="#0c5f34"
     stroke-width="1.51"
     id="path146" />
  <path
     d="M1398,1391L1801,1366L1581,1199Z"
     fill="#004529"
     stroke="#004529"
     stroke-width="1.51"
     id="path148" />
  <path
     d="M1601,344L1811,-48L1363,73Z"
     fill="#7c9c6c"
     stroke="#7c9c6c"
     stroke-width="1.51"
     id="path150" />
  <path
     d="M1953,635L1784,299L1601,344Z"
     fill="#458551"
     stroke="#458551"
     stroke-width="1.51"
     id="path152" />
  <path
     d="M1002,-378L628,-202L710,-35Z"
     fill="#b5dea9"
     stroke="#b5dea9"
     stroke-width="1.51"
     id="path154" />
  <path
     d="M836,1422L359,1411L972,1458Z"
     fill="#3e834f"
     stroke="#3e834f"
     stroke-width="1.51"
     id="path156" />
  <path
     d="M972,1458L-126,1466L1302,1516Z"
     fill="#3f834f"
     stroke="#3f834f"
     stroke-width="1.51"
     id="path158" />
  <path
     d="M175,1241L359,1411L442,1161Z"
     fill="#729764"
     stroke="#729764"
     stroke-width="1.51"
     id="path160" />
  <path
     d="M189,1043L175,1241L442,1161Z"
     fill="#779968"
     stroke="#779968"
     stroke-width="1.51"
     id="path162" />
  <path
     d="M-20,544L251,720L308,464Z"
     fill="#9fd188"
     stroke="#9fd188"
     stroke-width="1.51"
     id="path164" />
  <path
     d="M-20,544L308,464L13,325Z"
     fill="#bce2a3"
     stroke="#bce2a3"
     stroke-width="1.51"
     id="path166" />
  <path
     d="M103,1213L175,1241L189,1043Z"
     fill="#7e9c6f"
     stroke="#7e9c6f"
     stroke-width="1.51"
     id="path168" />
  <path
     d="M13,325L308,464L316,221Z"
     fill="#d0eca1"
     stroke="#d0eca1"
     stroke-width="1.51"
     id="path170" />
  <path
     d="M1808,820L1953,635L1587,775Z"
     fill="#075b32"
     stroke="#075b32"
     stroke-width="1.51"
     id="path172" />
  <path
     d="M1581,1199L1920,845L1808,820Z"
     fill="#004529"
     stroke="#004529"
     stroke-width="1.51"
     id="path174" />
  <path
     d="M1801,1366L1920,845L1581,1199Z"
     fill="#004529"
     stroke="#004529"
     stroke-width="1.51"
     id="path176" />
  <path
     d="M216,-109L316,221L434,-29Z"
     fill="#eef9c1"
     stroke="#eef9c1"
     stroke-width="1.51"
     id="path178" />
  <path
     d="M-84,10L13,325L316,221Z"
     fill="#f0f9be"
     stroke="#f0f9be"
     stroke-width="1.51"
     id="path180" />
  <path
     d="M-56,1014L103,1213L189,1043Z"
     fill="#809d78"
     stroke="#809d78"
     stroke-width="1.51"
     id="path182" />
  <path
     d="M175,1241L183,1376L359,1411Z"
     fill="#799a69"
     stroke="#799a69"
     stroke-width="1.51"
     id="path184" />
  <path
     d="M1920,845L1953,635L1808,820Z"
     fill="#035931"
     stroke="#035931"
     stroke-width="1.51"
     id="path186" />
  <path
     d="M103,1213L183,1376L175,1241Z"
     fill="#7e9c6f"
     stroke="#7e9c6f"
     stroke-width="1.51"
     id="path188" />
  <path
     d="M628,-202L419,-214L434,-29Z"
     fill="#dcf1bc"
     stroke="#dcf1bc"
     stroke-width="1.51"
     id="path190" />
  <path
     d="M1002,-378L419,-214L628,-202Z"
     fill="#c2e5b0"
     stroke="#c2e5b0"
     stroke-width="1.51"
     id="path192" />
  <path
     d="M103,1213L-126,1466L183,1376Z"
     fill="#809d7b"
     stroke="#809d7b"
     stroke-width="1.51"
     id="path194" />
  <path
     d="M3,794L-56,1014L189,1043Z"
     fill="#809d7c"
     stroke="#809d7c"
     stroke-width="1.51"
     id="path196" />
  <path
     d="M-302,834L-56,1014L3,794Z"
     fill="#83a182"
     stroke="#83a182"
     stroke-width="1.51"
     id="path198" />
  <path
     d="M1149,-199L1002,-378L710,-35Z"
     fill="#a1cf9b"
     stroke="#a1cf9b"
     stroke-width="1.51"
     id="path200" />
  <path
     d="M1563,-373L1002,-378L1149,-199Z"
     fill="#8cb48a"
     stroke="#8cb48a"
     stroke-width="1.51"
     id="path202" />
  <path
     d="M419,-214L216,-109L434,-29Z"
     fill="#edf8c4"
     stroke="#edf8c4"
     stroke-width="1.51"
     id="path204" />
  <path
     d="M1920,845L2028,501L1953,635Z"
     fill="#146637"
     stroke="#146637"
     stroke-width="1.51"
     id="path206" />
  <path
     d="M1953,635L2028,501L1784,299Z"
     fill="#387f4c"
     stroke="#387f4c"
     stroke-width="1.51"
     id="path208" />
  <path
     d="M1784,299L1811,-48L1601,344Z"
     fill="#739865"
     stroke="#739865"
     stroke-width="1.51"
     id="path210" />
  <path
     d="M1302,1516L1801,1366L1398,1391Z"
     fill="#004529"
     stroke="#004529"
     stroke-width="1.51"
     id="path212" />
  <path
     d="M1920,845L2023,1293L2028,501Z"
     fill="#00482a"
     stroke="#00482a"
     stroke-width="1.51"
     id="path214" />
  <path
     d="M2002,83L1811,-48L1784,299Z"
     fill="#7e9c6d"
     stroke="#7e9c6d"
     stroke-width="1.51"
     id="path216" />
  <path
     d="M-229,571L-20,544L13,325Z"
     fill="#b7dfaa"
     stroke="#b7dfaa"
     stroke-width="1.51"
     id="path218" />
  <path
     d="M-229,571L-192,701L-20,544Z"
     fill="#a0ce9a"
     stroke="#a0ce9a"
     stroke-width="1.51"
     id="path220" />
  <path
     d="M-20,544L-192,701L3,794Z"
     fill="#96c090"
     stroke="#96c090"
     stroke-width="1.51"
     id="path222" />
  <path
     d="M-230,189L-229,571L13,325Z"
     fill="#d1ecb7"
     stroke="#d1ecb7"
     stroke-width="1.51"
     id="path224" />
  <path
     d="M2028,501L2002,83L1784,299Z"
     fill="#62915d"
     stroke="#62915d"
     stroke-width="1.51"
     id="path226" />
  <path
     d="M1756,-378L1563,-373L1811,-48Z"
     fill="#819e81"
     stroke="#819e81"
     stroke-width="1.51"
     id="path228" />
  <path
     d="M1811,-48L1563,-373L1363,73Z"
     fill="#819e81"
     stroke="#819e81"
     stroke-width="1.51"
     id="path230" />
  <path
     d="M34,-249L-84,10L216,-109Z"
     fill="#fefedf"
     stroke="#fefedf"
     stroke-width="1.51"
     id="path232" />
  <path
     d="M216,-109L-84,10L316,221Z"
     fill="#fbfdcb"
     stroke="#fbfdcb"
     stroke-width="1.51"
     id="path234" />
  <path
     d="M2002,83L1876,-128L1811,-48Z"
     fill="#819e81"
     stroke="#819e81"
     stroke-width="1.51"
     id="path236" />
  <path
     d="M1801,1366L2023,1293L1920,845Z"
     fill="#004529"
     stroke="#004529"
     stroke-width="1.51"
     id="path238" />
  <path
     d="M-192,701L-302,834L3,794Z"
     fill="#8cb48a"
     stroke="#8cb48a"
     stroke-width="1.51"
     id="path240" />
  <path
     d="M-56,1014L-280,1102L103,1213Z"
     fill="#819e81"
     stroke="#819e81"
     stroke-width="1.51"
     id="path242" />
  <path
     d="M-229,571L-302,834L-192,701Z"
     fill="#93bd8f"
     stroke="#93bd8f"
     stroke-width="1.51"
     id="path244" />
  <path
     d="M-367,-188L-302,834L-229,571Z"
     fill="#c7e7b2"
     stroke="#c7e7b2"
     stroke-width="1.51"
     id="path246" />
  <path
     d="M-84,10L-230,189L13,325Z"
     fill="#f3fac9"
     stroke="#f3fac9"
     stroke-width="1.51"
     id="path248" />
  <path
     d="M1801,1366L2005,1384L2023,1293Z"
     fill="#004529"
     stroke="#004529"
     stroke-width="1.51"
     id="path250" />
  <path
     d="M1302,1516L2005,1384L1801,1366Z"
     fill="#004529"
     stroke="#004529"
     stroke-width="1.51"
     id="path252" />
  <path
     d="M419,-214L122,-313L216,-109Z"
     fill="#f5fbcb"
     stroke="#f5fbcb"
     stroke-width="1.51"
     id="path254" />
  <path
     d="M-84,10L-267,-35L-230,189Z"
     fill="#fdffdb"
     stroke="#fdffdb"
     stroke-width="1.51"
     id="path256" />
  <path
     d="M1002,-378L122,-313L419,-214Z"
     fill="#d9f0bb"
     stroke="#d9f0bb"
     stroke-width="1.51"
     id="path258" />
  <path
     d="M-302,834L-280,1102L-56,1014Z"
     fill="#819e81"
     stroke="#819e81"
     stroke-width="1.51"
     id="path260" />
  <path
     d="M122,-313L34,-249L216,-109Z"
     fill="#fdfed6"
     stroke="#fdfed6"
     stroke-width="1.51"
     id="path262" />
  <path
     d="M-276,1348L-126,1466L103,1213Z"
     fill="#819e81"
     stroke="#819e81"
     stroke-width="1.51"
     id="path264" />
  <path
     d="M183,1376L-126,1466L359,1411Z"
     fill="#7e9d71"
     stroke="#7e9d71"
     stroke-width="1.51"
     id="path266" />
  <path
     d="M359,1411L-126,1466L972,1458Z"
     fill="#6a9560"
     stroke="#6a9560"
     stroke-width="1.51"
     id="path268" />
  <path
     d="M2034,-260L1756,-378L1876,-128Z"
     fill="#819e81"
     stroke="#819e81"
     stroke-width="1.51"
     id="path270" />
  <path
     d="M1876,-128L1756,-378L1811,-48Z"
     fill="#819e81"
     stroke="#819e81"
     stroke-width="1.51"
     id="path272" />
  <path
     d="M1563,-373L1756,-378L1002,-378Z"
     fill="#819e81"
     stroke="#819e81"
     stroke-width="1.51"
     id="path274" />
  <path
     d="M-280,1102L-276,1348L103,1213Z"
     fill="#819e81"
     stroke="#819e81"
     stroke-width="1.51"
     id="path276" />
  <path
     d="M-302,834L-276,1348L-280,1102Z"
     fill="#819e81"
     stroke="#819e81"
     stroke-width="1.51"
     id="path278" />
  <path
     d="M-367,-188L-267,-35L34,-249Z"
     fill="#ffffe5"
     stroke="#ffffe5"
     stroke-width="1.51"
     id="path280" />
  <path
     d="M34,-249L-267,-35L-84,10Z"
     fill="#ffffe5"
     stroke="#ffffe5"
     stroke-width="1.51"
     id="path282" />
  <path
     d="M-230,189L-367,-188L-229,571Z"
     fill="#f1fac8"
     stroke="#f1fac8"
     stroke-width="1.51"
     id="path284" />
  <path
     d="M2002,83L2034,-260L1876,-128Z"
     fill="#819e81"
     stroke="#819e81"
     stroke-width="1.51"
     id="path286" />
  <path
     d="M2028,501L2034,-260L2002,83Z"
     fill="#7e9c6d"
     stroke="#7e9c6d"
     stroke-width="1.51"
     id="path288" />
  <path
     d="M2023,1293L2034,-260L2028,501Z"
     fill="#307c48"
     stroke="#307c48"
     stroke-width="1.51"
     id="path290" />
  <path
     d="M-267,-35L-367,-188L-230,189Z"
     fill="#ffffe5"
     stroke="#ffffe5"
     stroke-width="1.51"
     id="path292" />
  <path
     d="M-302,834L-367,-188L-276,1348Z"
     fill="#98c392"
     stroke="#98c392"
     stroke-width="1.51"
     id="path294" />
  <path
     d="M122,-313L-367,-188L34,-249Z"
     fill="#ffffe5"
     stroke="#ffffe5"
     stroke-width="1.51"
     id="path296" />
  <g
     inkscape:groupmode="layer"
     id="layer1"
     inkscape:label="logo">
    <g
       id="g4819"
       transform="translate(201.35593,-748.6289)">
      <g
         transform="matrix(0.65582195,0,0,0.65582195,-34.080429,815.97365)"
         id="g5401"
         style="display:inline">
        <path
           style="fill:#ffffff;fill-opacity:1;fill-rule:evenodd;stroke:none;stroke-width:4.99712563;stroke-linecap:butt;stroke-linejoin:miter;stroke-miterlimit:4;stroke-dasharray:none;stroke-opacity:1"
           d="m 647.31324,367.30904 -7.22241,120.12178 -102.25507,63.2914 11.64527,13.10096 89.09825,-45.83975 -7.58126,133.17936 -74.23867,48.0368 -0.70642,17.57137 160.82903,-70.12146 -16.01226,-33.33388 -37.24123,23.29056 c 0.9498,-88.80322 2.00756,-266.1712 2.00756,-266.1712 z"
           id="path4148"
           inkscape:connector-curvature="0"
           sodipodi:nodetypes="ccccccccccccc" />
        <path
           style="fill:#ffffff;fill-opacity:1;fill-rule:evenodd;stroke:none;stroke-width:4.99712563;stroke-linecap:butt;stroke-linejoin:miter;stroke-miterlimit:4;stroke-dasharray:none;stroke-opacity:1"
           d="m 701.83456,407.75543 26.6474,4.87206 7.3236,68.22305 129.55376,-74.23867 13.10092,59.68206 -138.28772,42.21416 c 0,0 6.37127,79.87122 35.36704,121.98012 28.99577,42.10891 83.03525,73.28631 175.70365,77.44534 48.92949,0.62169 68.41609,-20.37925 68.41609,-20.37925 l 30.5688,-179.04621 97.5293,78.60565 -98.9849,212.52638 c -97.3543,-6.61436 -175.71563,-18.73844 -247.46225,-64.04905 -86.9643,-65.42248 -91.24644,-159.27832 -96.07356,-262.01883 -0.78592,-20.69165 -3.40213,-65.81681 -3.40213,-65.81681 z"
           id="path4150"
           inkscape:connector-curvature="0"
           sodipodi:nodetypes="cccccczcccccccc" />
      </g>
      <g
         id="flowRoot5426"
         style="font-style:normal;font-weight:normal;font-size:26.66666603px;line-height:125%;font-family:sans-serif;letter-spacing:0px;word-spacing:0px;display:inline;fill:#ffffff;fill-opacity:1;stroke:none;stroke-width:1px;stroke-linecap:butt;stroke-linejoin:miter;stroke-opacity:1"
         transform="matrix(2.6700293,0,0,2.6700293,-364.53236,1668.4798)"
         aria-label="no image">
        <path
           inkscape:connector-curvature="0"
           id="path5434"
           style="font-style:normal;font-variant:normal;font-weight:normal;font-stretch:normal;font-family:'Eras Medium ITC';-inkscape-font-specification:'Eras Medium ITC';fill:#ffffff"
           d="m 275.9694,-90.077442 q 0.625,-8.164062 0.65104,-13.190108 l 1.17188,0.013 q 0.42969,0 1.13281,-0.013 l -0.16927,2.60417 q 0.32552,-0.54687 0.52083,-0.83333 0.19532,-0.29948 0.52084,-0.625 0.32552,-0.32552 0.76823,-0.59896 0.4427,-0.28646 1.04166,-0.46875 0.59896,-0.19531 1.21094,-0.28646 0.625,-0.0911 1.23698,-0.0911 1.11979,0 2.16146,0.27344 1.04166,0.27344 1.70573,0.89844 0.67708,0.61198 0.89843,1.38021 0.23438,0.76823 0.23438,1.653644 0,0.169271 -0.013,0.651042 -0.013,0.48177 -0.0521,1.26302 l -0.26041,5.455729 q -0.026,0.78125 -0.0391,1.914063 -0.58593,-0.02604 -1.10677,-0.02604 -0.63802,0 -1.19791,0.02604 0.13021,-1.575521 0.19531,-3.033854 l 0.16927,-3.033854 q 0.0781,-1.5625 0.0781,-2.356771 0,-1.145833 -0.39063,-1.822919 -0.39062,-0.6901 -1.25,-1.05469 -0.85937,-0.3776 -1.92708,-0.3776 -1.51042,0 -2.59115,0.71615 -0.98958,0.66406 -1.53646,1.888017 -0.3776,0.872396 -0.53385,2.578125 -0.19531,2.044271 -0.27344,6.497396 -0.72916,-0.02604 -1.13281,-0.02604 -0.40365,0 -1.22396,0.02604 z" />
        <path
           inkscape:connector-curvature="0"
           id="path5436"
           style="font-style:normal;font-variant:normal;font-weight:normal;font-stretch:normal;font-family:'Eras Medium ITC';-inkscape-font-specification:'Eras Medium ITC';fill:#ffffff"
           d="m 298.70378,-103.56703 q 1.36718,0 2.60416,0.39063 1.23698,0.39062 2.13542,1.23698 0.91146,0.84635 1.38021,2.135416 0.46875,1.289062 0.46875,2.721354 0,1.549479 -0.50782,2.96875 -0.49479,1.41927 -1.40625,2.408854 -0.89843,0.989583 -2.21354,1.458333 -1.30208,0.455729 -2.79948,0.455729 -1.39322,0 -2.6302,-0.416666 -1.23698,-0.416667 -2.14844,-1.302084 -0.89844,-0.885416 -1.36719,-2.161458 -0.46875,-1.289063 -0.46875,-2.695312 0,-2.122396 0.85938,-3.815106 0.85937,-1.70573 2.52604,-2.53906 1.66666,-0.84636 3.56771,-0.84636 z m -0.0521,1.65365 q -1.32812,0 -2.44791,0.66406 -1.10677,0.66407 -1.64063,2.005211 -0.53385,1.328125 -0.53385,2.903646 0,1.380208 0.44271,2.486979 0.4427,1.09375 1.45833,1.770834 1.01562,0.677083 2.44792,0.677083 0.97656,0 1.84895,-0.325521 0.8724,-0.338542 1.52344,-1.106771 0.65104,-0.768229 0.96354,-1.875 0.3125,-1.119791 0.3125,-2.34375 0,-1.145833 -0.3125,-2.148437 -0.3125,-1.002604 -0.96354,-1.601564 -0.63802,-0.61198 -1.45833,-0.85937 -0.80729,-0.2474 -1.64063,-0.2474 z" />
        <path
           inkscape:connector-curvature="0"
           id="path5438"
           style="font-style:normal;font-variant:normal;font-weight:normal;font-stretch:normal;font-family:'Eras Medium ITC';-inkscape-font-specification:'Eras Medium ITC';fill:#ffffff"
           d="m 315.18815,-106.10609 q 0.0391,-1.22396 0.0391,-1.84896 0.71615,0.026 1.26302,0.026 0.69011,0 1.25,-0.026 -0.026,0.40365 -0.0781,1.84896 -0.70313,-0.013 -1.21094,-0.013 -0.50781,0 -1.26302,0.013 z m -0.58594,16.028648 0.22136,-3.28125 0.24739,-5.598958 0.10417,-4.3099 1.19792,0.013 1.17187,-0.013 q -0.14323,2.03125 -0.26042,4.257816 -0.11718,2.213542 -0.19531,4.84375 -0.0651,2.630209 -0.0651,4.088542 -0.82032,-0.02604 -1.17188,-0.02604 -0.32552,0 -1.25,0.02604 z" />
        <path
           inkscape:connector-curvature="0"
           id="path5440"
           style="font-style:normal;font-variant:normal;font-weight:normal;font-stretch:normal;font-family:'Eras Medium ITC';-inkscape-font-specification:'Eras Medium ITC';fill:#ffffff"
           d="m 320.50065,-90.077442 0.14323,-1.888021 q 0.0391,-0.598958 0.10416,-1.888021 l 0.3125,-7.929686 q 0.013,-0.97656 0.013,-1.48438 0.61197,0.013 1.11979,0.013 0.54687,0 1.08073,-0.013 l -0.11719,2.42188 q 0.44271,-0.72917 0.79427,-1.15886 0.36458,-0.42968 0.95052,-0.79427 0.58594,-0.36458 1.32812,-0.55989 0.75521,-0.20834 1.5625,-0.20834 0.5599,0 1.10678,0.13021 0.54687,0.13021 1.0026,0.36459 0.46875,0.23437 0.79427,0.53385 0.33854,0.29948 0.53385,0.65104 0.20834,0.35156 0.41667,1.01563 0.79427,-1.4974 1.97917,-2.09636 1.19791,-0.59896 2.66927,-0.59896 0.9375,0 1.80989,0.29948 0.88542,0.29948 1.40625,0.85938 0.52084,0.55989 0.69011,1.17187 0.18229,0.59896 0.18229,1.21094 0,0.625001 -0.0912,1.875001 -0.0911,1.25 -0.20833,3.815104 -0.11719,2.552084 -0.13021,4.257813 -0.6901,-0.02604 -1.08073,-0.02604 -0.41666,0 -1.23698,0.02604 0.14323,-1.757813 0.2474,-3.828125 l 0.16927,-3.229167 q 0.0651,-1.171875 0.0651,-2.018229 0,-0.755208 -0.15625,-1.171877 -0.15625,-0.42969 -0.50782,-0.76823 -0.33854,-0.33854 -0.84635,-0.50781 -0.50781,-0.18229 -1.15886,-0.18229 -0.52083,0 -0.96354,0.11719 -0.41666,0.11718 -0.80729,0.35156 -0.42969,0.24739 -0.76823,0.61198 -0.33854,0.35156 -0.57291,0.794269 -0.2474,0.455729 -0.40365,1.080729 -0.19531,0.78125 -0.27344,1.914063 -0.0911,1.210937 -0.14323,3.190104 l -0.10416,3.645833 q -0.75521,-0.02604 -1.13282,-0.02604 -0.35156,0 -1.18489,0.02604 0.13021,-1.614583 0.20833,-3.320313 l 0.15625,-3.151041 q 0.0651,-1.458333 0.0651,-2.486979 0,-0.664063 -0.13021,-1.119795 -0.13021,-0.46875 -0.49479,-0.84635 -0.35157,-0.39063 -0.85938,-0.58594 -0.50781,-0.20833 -1.11979,-0.20833 -0.65104,0 -1.23698,0.23437 -0.58594,0.22136 -1.08073,0.66407 -0.49479,0.4427 -0.83333,1.093746 -0.33854,0.63802 -0.53386,1.692708 -0.18229,1.041667 -0.29948,3.645833 -0.10416,2.604167 -0.10416,4.388021 -0.83334,-0.02604 -1.14584,-0.02604 -0.33854,0 -1.18489,0.02604 z" />
        <path
           inkscape:connector-curvature="0"
           id="path5442"
           style="font-style:normal;font-variant:normal;font-weight:normal;font-stretch:normal;font-family:'Eras Medium ITC';-inkscape-font-specification:'Eras Medium ITC';fill:#ffffff"
           d="m 344.22461,-101.17119 q 0.11719,-0.57292 0.2474,-1.69271 1.5625,-0.40365 2.70833,-0.54688 1.15885,-0.15625 2.2526,-0.15625 1.17188,0 2.1875,0.22136 1.02865,0.20833 1.70573,0.6901 0.67708,0.48177 0.89844,1.10677 0.22135,0.625 0.22135,1.34115 0,0.898437 -0.14323,3.020833 -0.1302,2.109375 -0.20833,3.90625 -0.0651,1.796875 -0.0651,3.203125 -0.70313,-0.02604 -1.14584,-0.02604 -0.41666,0 -1.18489,0.02604 l 0.27343,-3.554688 0.19532,-4.205729 q -0.45573,0.351563 -0.69011,0.494792 -0.22135,0.143229 -0.50781,0.273438 -0.28646,0.117187 -0.63802,0.234375 -0.33854,0.104166 -1.34115,0.377604 -0.98958,0.273437 -1.40625,0.416666 -0.89843,0.286459 -1.41927,0.572917 -0.52083,0.286458 -0.87239,0.625 -0.35156,0.338542 -0.49479,0.677083 -0.16927,0.416667 -0.16927,0.872396 0,0.703125 0.41666,1.223958 0.41667,0.520834 1.04167,0.729167 0.63802,0.195313 1.52344,0.195313 0.54687,0 1.14583,-0.07813 0.59896,-0.07813 1.60156,-0.403646 -0.18229,0.507812 -0.41666,1.5625 -0.95053,0.182291 -1.54948,0.221354 -0.59896,0.05208 -1.13282,0.05208 -1.78385,0 -2.78645,-0.416666 -1.00261,-0.416667 -1.4974,-1.263021 -0.49479,-0.859375 -0.49479,-1.861979 0,-0.585938 0.16927,-1.08073 0.18229,-0.494791 0.48177,-0.898437 0.29948,-0.403646 0.84635,-0.807292 0.5599,-0.403645 1.15886,-0.664062 0.61198,-0.260417 1.41927,-0.507813 0.80729,-0.260416 2.59114,-0.690104 0.57292,-0.130208 0.97657,-0.260416 0.40364,-0.14323 0.71614,-0.273438 0.3125,-0.130208 0.54688,-0.299479 0.23437,-0.182292 0.42968,-0.429688 0.19532,-0.260416 0.28646,-0.520833 0.0911,-0.26042 0.0911,-0.52084 0,-0.63802 -0.41667,-1.09375 -0.41666,-0.45572 -1.09375,-0.63802 -0.66406,-0.18229 -1.57552,-0.18229 -0.84635,0 -1.74479,0.14323 -0.88542,0.13021 -1.53646,0.32552 -0.63802,0.18229 -1.60156,0.5599 z" />
        <path
           inkscape:connector-curvature="0"
           id="path5444"
           style="font-style:normal;font-variant:normal;font-weight:normal;font-stretch:normal;font-family:'Eras Medium ITC';-inkscape-font-specification:'Eras Medium ITC';fill:#ffffff"
           d="m 358.37825,-86.262338 q 1.71875,0.520833 2.87761,0.703125 1.15885,0.182292 2.10937,0.182292 1.08073,0 2.00521,-0.29948 0.76823,-0.247395 1.3151,-0.703125 0.41667,-0.351562 0.69011,-0.911458 0.33854,-0.742187 0.48177,-1.888021 0.11719,-0.924479 0.18229,-3.684895 -0.3125,0.585937 -0.57292,0.95052 -0.24739,0.364584 -0.67708,0.755209 -0.42969,0.377604 -1.0026,0.677083 -0.57292,0.299479 -1.32813,0.46875 -0.75521,0.182292 -1.5625,0.182292 -1.18489,0 -2.22656,-0.325521 -1.02865,-0.325521 -1.84896,-1.080729 -0.80729,-0.755209 -1.23698,-1.927084 -0.41666,-1.171875 -0.41666,-2.447916 0,-1.757813 0.625,-3.346354 0.63802,-1.58854 1.84895,-2.65625 1.22396,-1.06771 2.7474,-1.51042 1.53646,-0.44271 3.35937,-0.44271 2.00521,0 4.98698,0.53386 l -0.14323,1.60156 -0.39062,7.304689 q 0,0.221354 -0.0651,2.65625 l -0.0781,2.695312 q -0.0651,0.859375 -0.23438,1.510417 -0.15625,0.533854 -0.41666,1.015625 -0.23438,0.442708 -0.58594,0.807291 -0.33854,0.377605 -0.79427,0.677084 -0.45573,0.299479 -0.97656,0.481771 -0.72917,0.260416 -1.51042,0.377604 -0.88542,0.143229 -1.77083,0.143229 -1.27604,0 -2.51302,-0.130208 -1.22396,-0.130209 -2.7474,-0.494792 l -0.0391,-0.716146 q -0.013,-0.260417 -0.0912,-1.158854 z m 10.01302,-15.364582 q -1.45833,-0.28646 -2.72135,-0.28646 -1.27604,0 -2.36979,0.29948 -1.08073,0.29948 -1.99219,1.09375 -0.89844,0.794271 -1.40625,2.057291 -0.50781,1.263021 -0.50781,2.617188 0,1.263021 0.45573,2.304687 0.46875,1.041667 1.43229,1.575521 0.96354,0.520833 2.1875,0.520833 1.05469,0 1.875,-0.364583 0.83333,-0.377604 1.47135,-1.145833 0.66406,-0.794271 0.98959,-1.822917 0.24739,-0.729167 0.3776,-2.161458 0.10417,-1.145833 0.20833,-4.687499 z" />
        <path
           inkscape:connector-curvature="0"
           id="path5446"
           style="font-style:normal;font-variant:normal;font-weight:normal;font-stretch:normal;font-family:'Eras Medium ITC';-inkscape-font-specification:'Eras Medium ITC';fill:#ffffff"
           d="m 384.44596,-92.147755 q -0.15625,0.716146 -0.3125,1.822917 -1.25,0.3125 -2.17448,0.416667 -0.91146,0.117187 -1.82292,0.117187 -1.6276,0 -2.92968,-0.390625 -1.28906,-0.390625 -2.21354,-1.354166 -0.92448,-0.976563 -1.32813,-2.226563 -0.40364,-1.25 -0.40364,-2.643229 0,-1.940104 0.74218,-3.59375 0.74219,-1.666663 2.22657,-2.617183 1.49739,-0.95053 3.78906,-0.95053 1.18489,0 2.26562,0.35157 1.08073,0.33854 1.79688,1.04166 0.71614,0.70313 1.10677,1.7448 0.39062,1.028641 0.39062,2.2526 0,0.46875 -0.0781,0.911458 h -9.9349 q -0.0521,0.716146 -0.0521,1.09375 0,1.367187 0.57292,2.526042 0.57291,1.145833 1.6927,1.744791 1.1198,0.585938 2.57813,0.585938 1.67969,0 4.08854,-0.833334 z m -8.77604,-6.197916 h 7.76042 q -0.013,-0.820313 -0.10417,-1.276042 -0.0911,-0.455727 -0.33854,-0.937497 -0.2474,-0.49479 -0.67709,-0.84636 -0.41666,-0.36458 -1.01562,-0.54687 -0.58594,-0.19531 -1.27604,-0.19531 -0.74219,0 -1.41927,0.20833 -0.66407,0.20833 -1.1849,0.57292 -0.50781,0.36458 -0.87239,0.85937 -0.35157,0.48177 -0.53386,0.937501 -0.16927,0.455729 -0.33854,1.223958 z" />
      </g>
    </g>
  </g>
</svg>
